<svg xmlns="http://www.w3.org/2000/svg" width="23.024" height="27.934" viewBox="0 0 23.024 27.934"><defs><style>.a{stroke:#061134;}</style></defs><g transform="translate(0.5 0.5)"><g transform="translate(0 0)"><path class="a" d="M272.932,199.113l-4.069-4.025h0a.191.191,0,0,0-.031-.027s0,0-.009,0a.247.247,0,0,0-.035-.022h0c-.013,0-.022-.013-.035-.018s0,0-.009,0a.13.13,0,0,0-.04-.009h0a.122.122,0,0,0-.04,0H251.31a.308.308,0,0,0-.31.31v26.314a.308.308,0,0,0,.31.31h21.405a.308.308,0,0,0,.31-.31v-22.29A.3.3,0,0,0,272.932,199.113Zm-1.008-.088h-2.968v-2.968Zm-20.3,22.29v-25.7h16.717v3.715a.308.308,0,0,0,.31.31h3.759v21.671Z" transform="translate(-251 -195)"/><path class="a" d="M313.941,254.538a.308.308,0,0,0,.31-.31V251.31a.308.308,0,0,0-.31-.31H302.31a.308.308,0,0,0-.31.31v2.919a.308.308,0,0,0,.31.31Zm-11.322-2.919h11.012v2.3H302.619Z" transform="translate(-299.744 -248.523)"/><path class="a" d="M307,388.31a.308.308,0,0,0,.31.31h15.037a.31.31,0,1,0,0-.619H307.31A.308.308,0,0,0,307,388.31Z" transform="translate(-304.523 -379.464)"/><path class="a" d="M307.31,532.619h15.037a.31.31,0,1,0,0-.619H307.31a.31.31,0,0,0,0,.619Z" transform="translate(-304.523 -517.096)"/><path class="a" d="M322.346,676H307.31a.31.31,0,0,0,0,.619h15.037a.31.31,0,1,0,0-.619Z" transform="translate(-304.523 -654.727)"/><path class="a" d="M323.717,460H307.31a.31.31,0,0,0,0,.619h16.408a.31.31,0,1,0,0-.619Z" transform="translate(-304.523 -448.28)"/><path class="a" d="M323.717,604H307.31a.31.31,0,0,0,0,.619h16.408a.31.31,0,1,0,0-.619Z" transform="translate(-304.523 -585.912)"/></g></g></svg>