<svg xmlns="http://www.w3.org/2000/svg" width="36.599" height="28.767" viewBox="0 0 36.599 28.767"><defs><style>.a{stroke:#061134;}</style></defs><g transform="translate(0.5 0.5)"><path class="a" d="M38.835,31.68h-.356a10.68,10.68,0,1,0-21.359,0h-.356A6.764,6.764,0,0,0,10,38.443h0a6.764,6.764,0,0,0,6.764,6.764H31.551a1.513,1.513,0,0,0,.3.356,1.424,1.424,0,0,0-.491,1.068v.712a1.424,1.424,0,0,0,1.424,1.424h7.832a1.424,1.424,0,0,0,1.424-1.424v-.712a1.424,1.424,0,0,0-.491-1.068,1.424,1.424,0,0,0,.491-1.068v-.1a6.764,6.764,0,0,0,3.56-5.956h0A6.764,6.764,0,0,0,38.835,31.68Zm2.492,15.663a.712.712,0,0,1-.712.712H32.783a.712.712,0,0,1-.712-.712v-.712a.712.712,0,0,1,.712-.712h7.832a.712.712,0,0,1,.712.712Zm0-2.848a.712.712,0,0,1-.712.712H32.783a.712.712,0,0,1-.712-.712v-.712a.712.712,0,0,1,.712-.712h7.832a.712.712,0,0,1,.712.712Zm0-2.848a.712.712,0,0,1-.712.712H32.783a.712.712,0,0,1-.712-.712v-.712a.712.712,0,0,1,.712-.712h7.832a.712.712,0,0,1,.712.712Zm.712,1.933h0a1.424,1.424,0,0,0-.491-.865,1.424,1.424,0,0,0,.491-1.068v-.712a1.424,1.424,0,0,0-1.424-1.424H32.783a1.424,1.424,0,0,0-1.424,1.424v.712a1.424,1.424,0,0,0,.491,1.068,1.424,1.424,0,0,0-.491,1.068V44.5h-14.6a6.052,6.052,0,1,1,0-12.1h1.068V31.68a9.968,9.968,0,1,1,19.935,0v.712h1.068a6.052,6.052,0,0,1,3.2,11.189Z" transform="translate(-10 -21)"/></g></svg>