<svg xmlns="http://www.w3.org/2000/svg" width="29.959" height="28.452" viewBox="0 0 29.959 28.452"><defs><style>.a{stroke:#061134;}</style></defs><g transform="translate(0.5 0.5)"><path class="a" d="M31.858,46.952A13.726,13.726,0,1,1,45.617,33.226h-.483A13.276,13.276,0,1,0,31.858,46.47Z" transform="translate(-18.1 -19.5)"/><path class="a" d="M36.564,47.8C31.9,47.8,28.1,43.7,28.1,38.651S31.9,29.5,36.564,29.5s8.464,4.105,8.464,9.151S41.231,47.8,36.564,47.8Zm0-17.806c-4.392,0-8.007,3.908-8.007,8.656s3.614,8.656,8.007,8.656,8.007-3.908,8.007-8.656S40.957,29.995,36.564,29.995Z" transform="translate(-22.891 -24.925)"/><path class="a" d="M44.159,42.618a2.059,2.059,0,1,1,2.059-2.059A2.05,2.05,0,0,1,44.159,42.618Zm0-3.66a1.6,1.6,0,1,0,1.6,1.6A1.621,1.621,0,0,0,44.159,38.958Z" transform="translate(-30.439 -29.264)"/><path class="a" d="M45.878,52.389H45.42a3.431,3.431,0,0,0-6.863,0H38.1a3.889,3.889,0,0,1,7.778,0Z" transform="translate(-28.276 -34.411)"/><path class="a" d="M72.864,48.547c-.046,0-.137-.046-.183-.046L71.4,47.22l.32-.32,1.144,1.144L74.008,46.9l.32.32L73.047,48.5C72.956,48.5,72.91,48.547,72.864,48.547Z" transform="translate(-45.576 -33.659)"/></g></svg>