<svg xmlns="http://www.w3.org/2000/svg" width="26.591" height="25.935" viewBox="0 0 26.591 25.935"><defs><style>.a{stroke:#061134;}</style></defs><g transform="translate(0.5 0.5)"><g transform="translate(0 0)"><path class="a" d="M16.952,4.656a.328.328,0,0,0,0-.656H9.078a.328.328,0,1,0,0,.656Z" transform="translate(-0.22 -2.031)"/><path class="a" d="M7.906,6.765V2.828a.328.328,0,0,0-.656,0V6.765a.328.328,0,1,0,.656,0Z" transform="translate(-0.688 -2.5)"/><path class="a" d="M16.906,6.765V2.828a.328.328,0,0,0-.656,0V6.765a.328.328,0,1,0,.656,0Z" transform="translate(2.123 -2.5)"/><path class="a" d="M26.791,4H22.919a.328.328,0,1,0,0,.656h3.871a.4.4,0,0,1,.394.328V9.249H2.906V4.984c0-.151.068-.328.262-.328h4a.328.328,0,1,0,0-.656h-4a.932.932,0,0,0-.919.984v21a.932.932,0,0,0,.919.984H26.791a1.046,1.046,0,0,0,1.05-.984v-21A1.046,1.046,0,0,0,26.791,4Zm0,22.31H3.169c-.194,0-.262-.177-.262-.328V9.906H27.185V25.982A.4.4,0,0,1,26.791,26.31Z" transform="translate(-2.25 -2.031)"/></g></g></svg>